<mxfile host="Electron" modified="2024-08-16T03:43:58.464Z" agent="Mozilla/5.0 (Windows NT 10.0; Win64; x64) AppleWebKit/537.36 (KHTML, like Gecko) draw.io/21.5.0 Chrome/112.0.5615.204 Electron/24.5.1 Safari/537.36" etag="R2A95K3HH5tkbXQ962Ds" version="21.5.0" type="device" pages="7">
  <diagram name="Home" id="TI-E8sjQC2dqpqyQXqQm">
    <mxGraphModel dx="1418" dy="820" grid="1" gridSize="10" guides="1" tooltips="1" connect="1" arrows="1" fold="1" page="1" pageScale="1" pageWidth="850" pageHeight="1100" math="0" shadow="0">
      <root>
        <mxCell id="0" />
        <mxCell id="1" parent="0" />
        <mxCell id="QXrbRGZaJtoJw0E48VOS-2" value="" style="rounded=0;whiteSpace=wrap;html=1;" parent="1" vertex="1">
          <mxGeometry x="40" y="160" width="640" height="400" as="geometry" />
        </mxCell>
        <mxCell id="QXrbRGZaJtoJw0E48VOS-6" value="" style="rounded=0;whiteSpace=wrap;html=1;" parent="1" vertex="1">
          <mxGeometry x="40" y="160" width="640" height="80" as="geometry" />
        </mxCell>
        <mxCell id="QXrbRGZaJtoJw0E48VOS-3" value="" style="rounded=0;whiteSpace=wrap;html=1;" parent="1" vertex="1">
          <mxGeometry x="70" y="170" width="250" height="30" as="geometry" />
        </mxCell>
        <mxCell id="QXrbRGZaJtoJw0E48VOS-4" value="" style="ellipse;whiteSpace=wrap;html=1;aspect=fixed;" parent="1" vertex="1">
          <mxGeometry x="600" y="175" width="55" height="55" as="geometry" />
        </mxCell>
        <mxCell id="QXrbRGZaJtoJw0E48VOS-5" value="" style="rounded=0;whiteSpace=wrap;html=1;" parent="1" vertex="1">
          <mxGeometry x="155" y="210" width="80" height="20" as="geometry" />
        </mxCell>
        <mxCell id="QXrbRGZaJtoJw0E48VOS-11" value="" style="group" parent="1" vertex="1" connectable="0">
          <mxGeometry x="425" y="187.5" width="60" height="30" as="geometry" />
        </mxCell>
        <mxCell id="QXrbRGZaJtoJw0E48VOS-7" value="" style="rounded=0;whiteSpace=wrap;html=1;" parent="QXrbRGZaJtoJw0E48VOS-11" vertex="1">
          <mxGeometry width="60" height="30" as="geometry" />
        </mxCell>
        <mxCell id="QXrbRGZaJtoJw0E48VOS-9" value="Home" style="text;html=1;strokeColor=none;fillColor=none;align=center;verticalAlign=middle;whiteSpace=wrap;rounded=0;" parent="QXrbRGZaJtoJw0E48VOS-11" vertex="1">
          <mxGeometry x="7.5" y="3.75" width="45" height="22.5" as="geometry" />
        </mxCell>
        <mxCell id="QXrbRGZaJtoJw0E48VOS-13" value="" style="group" parent="1" vertex="1" connectable="0">
          <mxGeometry x="500" y="187.5" width="75" height="30" as="geometry" />
        </mxCell>
        <mxCell id="QXrbRGZaJtoJw0E48VOS-8" value="" style="rounded=0;whiteSpace=wrap;html=1;" parent="QXrbRGZaJtoJw0E48VOS-13" vertex="1">
          <mxGeometry width="75" height="30" as="geometry" />
        </mxCell>
        <mxCell id="QXrbRGZaJtoJw0E48VOS-12" value="Add Question" style="text;html=1;strokeColor=none;fillColor=none;align=center;verticalAlign=middle;whiteSpace=wrap;rounded=0;" parent="QXrbRGZaJtoJw0E48VOS-13" vertex="1">
          <mxGeometry x="9.375" y="3.75" width="56.25" height="22.5" as="geometry" />
        </mxCell>
        <mxCell id="QXrbRGZaJtoJw0E48VOS-26" value="Search" style="text;html=1;strokeColor=none;fillColor=none;align=center;verticalAlign=middle;whiteSpace=wrap;rounded=0;" parent="1" vertex="1">
          <mxGeometry x="165" y="205" width="60" height="30" as="geometry" />
        </mxCell>
        <mxCell id="QXrbRGZaJtoJw0E48VOS-27" value="" style="rounded=0;whiteSpace=wrap;html=1;" parent="1" vertex="1">
          <mxGeometry x="200" y="300" width="320" height="250" as="geometry" />
        </mxCell>
        <mxCell id="QXrbRGZaJtoJw0E48VOS-43" value="" style="group" parent="1" vertex="1" connectable="0">
          <mxGeometry x="536" y="229.99786437626904" width="120" height="134.14213562373095" as="geometry" />
        </mxCell>
        <mxCell id="QXrbRGZaJtoJw0E48VOS-16" value="" style="rounded=0;whiteSpace=wrap;html=1;" parent="QXrbRGZaJtoJw0E48VOS-43" vertex="1">
          <mxGeometry y="24.14213562373095" width="120" height="110" as="geometry" />
        </mxCell>
        <mxCell id="QXrbRGZaJtoJw0E48VOS-15" value="" style="whiteSpace=wrap;html=1;aspect=fixed;rotation=45;" parent="QXrbRGZaJtoJw0E48VOS-43" vertex="1">
          <mxGeometry x="82.5" y="4.142135623730951" width="20" height="20" as="geometry" />
        </mxCell>
        <mxCell id="QXrbRGZaJtoJw0E48VOS-17" value="" style="ellipse;whiteSpace=wrap;html=1;aspect=fixed;" parent="QXrbRGZaJtoJw0E48VOS-43" vertex="1">
          <mxGeometry x="10" y="31.64213562373095" width="20" height="20" as="geometry" />
        </mxCell>
        <mxCell id="QXrbRGZaJtoJw0E48VOS-18" value="Name" style="text;html=1;strokeColor=none;fillColor=none;align=center;verticalAlign=middle;whiteSpace=wrap;rounded=0;fontSize=9;" parent="QXrbRGZaJtoJw0E48VOS-43" vertex="1">
          <mxGeometry x="33" y="36.64213562373095" width="32" height="15" as="geometry" />
        </mxCell>
        <mxCell id="QXrbRGZaJtoJw0E48VOS-25" value="" style="endArrow=none;html=1;rounded=0;" parent="QXrbRGZaJtoJw0E48VOS-43" edge="1">
          <mxGeometry width="50" height="50" relative="1" as="geometry">
            <mxPoint x="14" y="57.14213562373095" as="sourcePoint" />
            <mxPoint x="106" y="57.14213562373095" as="targetPoint" />
          </mxGeometry>
        </mxCell>
        <mxCell id="QXrbRGZaJtoJw0E48VOS-34" value="Setting &amp;amp; Privacy" style="text;html=1;strokeColor=none;fillColor=none;align=center;verticalAlign=middle;whiteSpace=wrap;rounded=0;fontSize=9;" parent="QXrbRGZaJtoJw0E48VOS-43" vertex="1">
          <mxGeometry x="11.5" y="80.14213562373095" width="71" height="12" as="geometry" />
        </mxCell>
        <mxCell id="QXrbRGZaJtoJw0E48VOS-35" value="Edit Profile" style="text;html=1;strokeColor=none;fillColor=none;align=center;verticalAlign=middle;whiteSpace=wrap;rounded=0;fontSize=9;" parent="QXrbRGZaJtoJw0E48VOS-43" vertex="1">
          <mxGeometry x="10" y="64.14213562373095" width="50" height="12" as="geometry" />
        </mxCell>
        <mxCell id="QXrbRGZaJtoJw0E48VOS-41" value="Log Out" style="text;html=1;strokeColor=none;fillColor=none;align=center;verticalAlign=middle;whiteSpace=wrap;rounded=0;fontSize=9;" parent="QXrbRGZaJtoJw0E48VOS-43" vertex="1">
          <mxGeometry x="11.5" y="114.14213562373095" width="35" height="12" as="geometry" />
        </mxCell>
        <mxCell id="QXrbRGZaJtoJw0E48VOS-42" value="Help &amp;amp; Support" style="text;html=1;strokeColor=none;fillColor=none;align=center;verticalAlign=middle;whiteSpace=wrap;rounded=0;fontSize=9;" parent="QXrbRGZaJtoJw0E48VOS-43" vertex="1">
          <mxGeometry x="10" y="97.14213562373095" width="66" height="12" as="geometry" />
        </mxCell>
        <mxCell id="QXrbRGZaJtoJw0E48VOS-47" value="&lt;b&gt;&lt;font style=&quot;font-size: 15px;&quot;&gt;List of Question&lt;/font&gt;&lt;/b&gt;" style="text;html=1;strokeColor=none;fillColor=none;align=center;verticalAlign=middle;whiteSpace=wrap;rounded=0;" parent="1" vertex="1">
          <mxGeometry x="300" y="260" width="120" height="30" as="geometry" />
        </mxCell>
        <mxCell id="QXrbRGZaJtoJw0E48VOS-49" value="&lt;b&gt;Name&lt;/b&gt;" style="text;html=1;strokeColor=none;fillColor=none;align=center;verticalAlign=middle;whiteSpace=wrap;rounded=0;" parent="1" vertex="1">
          <mxGeometry x="340" y="314" width="40" height="16" as="geometry" />
        </mxCell>
        <mxCell id="QXrbRGZaJtoJw0E48VOS-50" value="Module Name" style="text;html=1;strokeColor=none;fillColor=none;align=center;verticalAlign=middle;whiteSpace=wrap;rounded=0;fontStyle=1" parent="1" vertex="1">
          <mxGeometry x="210" y="340" width="80" height="30" as="geometry" />
        </mxCell>
        <mxCell id="QXrbRGZaJtoJw0E48VOS-51" value="Question" style="text;html=1;strokeColor=none;fillColor=none;align=center;verticalAlign=middle;whiteSpace=wrap;rounded=0;" parent="1" vertex="1">
          <mxGeometry x="220" y="370" width="60" height="20" as="geometry" />
        </mxCell>
        <mxCell id="QXrbRGZaJtoJw0E48VOS-52" value="Img 3" style="rounded=0;whiteSpace=wrap;html=1;" parent="1" vertex="1">
          <mxGeometry x="420" y="400" width="90" height="40" as="geometry" />
        </mxCell>
        <mxCell id="QXrbRGZaJtoJw0E48VOS-53" value="Img 1" style="rounded=0;whiteSpace=wrap;html=1;" parent="1" vertex="1">
          <mxGeometry x="225" y="400" width="90" height="40" as="geometry" />
        </mxCell>
        <mxCell id="QXrbRGZaJtoJw0E48VOS-54" value="Img 2" style="rounded=0;whiteSpace=wrap;html=1;" parent="1" vertex="1">
          <mxGeometry x="322" y="400" width="90" height="40" as="geometry" />
        </mxCell>
        <mxCell id="QXrbRGZaJtoJw0E48VOS-59" value="&lt;b&gt;Comment&lt;/b&gt;" style="text;html=1;strokeColor=none;fillColor=none;align=center;verticalAlign=middle;whiteSpace=wrap;rounded=0;" parent="1" vertex="1">
          <mxGeometry x="210" y="460" width="60" height="10" as="geometry" />
        </mxCell>
        <mxCell id="QXrbRGZaJtoJw0E48VOS-60" value="" style="rounded=0;whiteSpace=wrap;html=1;" parent="1" vertex="1">
          <mxGeometry x="221" y="475" width="290" height="13" as="geometry" />
        </mxCell>
        <mxCell id="QXrbRGZaJtoJw0E48VOS-61" value="" style="rounded=0;whiteSpace=wrap;html=1;" parent="1" vertex="1">
          <mxGeometry x="221" y="500" width="290" height="18" as="geometry" />
        </mxCell>
        <mxCell id="QXrbRGZaJtoJw0E48VOS-62" value="Post Comment" style="rounded=0;whiteSpace=wrap;html=1;" parent="1" vertex="1">
          <mxGeometry x="315" y="525" width="90" height="20" as="geometry" />
        </mxCell>
        <mxCell id="QXrbRGZaJtoJw0E48VOS-63" value="Enter Comment..." style="text;html=1;strokeColor=none;fillColor=none;align=center;verticalAlign=middle;whiteSpace=wrap;rounded=0;" parent="1" vertex="1">
          <mxGeometry x="212.5" y="494" width="115" height="30" as="geometry" />
        </mxCell>
        <mxCell id="fe3Do8Y6O0thS6kIcT_V-1" value="Edit" style="rounded=0;whiteSpace=wrap;html=1;fontSize=9;" parent="1" vertex="1">
          <mxGeometry x="445" y="445" width="20" height="10" as="geometry" />
        </mxCell>
        <mxCell id="fe3Do8Y6O0thS6kIcT_V-2" value="Delete" style="rounded=0;whiteSpace=wrap;html=1;fontSize=9;" parent="1" vertex="1">
          <mxGeometry x="470" y="445" width="30" height="10" as="geometry" />
        </mxCell>
        <mxCell id="nqcMyRLBaFdtUYppc4_4-5" value="Module Name" style="text;html=1;strokeColor=none;fillColor=none;align=center;verticalAlign=middle;whiteSpace=wrap;rounded=0;fontStyle=1" parent="1" vertex="1">
          <mxGeometry x="210" y="340" width="80" height="30" as="geometry" />
        </mxCell>
        <mxCell id="nqcMyRLBaFdtUYppc4_4-6" value="&lt;b&gt;Name&lt;/b&gt;" style="text;html=1;strokeColor=none;fillColor=none;align=center;verticalAlign=middle;whiteSpace=wrap;rounded=0;" parent="1" vertex="1">
          <mxGeometry x="340" y="314" width="40" height="16" as="geometry" />
        </mxCell>
        <mxCell id="nqcMyRLBaFdtUYppc4_4-7" value="Img 1" style="rounded=0;whiteSpace=wrap;html=1;" parent="1" vertex="1">
          <mxGeometry x="225" y="400" width="90" height="40" as="geometry" />
        </mxCell>
        <mxCell id="nqcMyRLBaFdtUYppc4_4-8" value="Question" style="text;html=1;strokeColor=none;fillColor=none;align=center;verticalAlign=middle;whiteSpace=wrap;rounded=0;" parent="1" vertex="1">
          <mxGeometry x="220" y="370" width="60" height="20" as="geometry" />
        </mxCell>
        <mxCell id="nqcMyRLBaFdtUYppc4_4-9" value="Img 2" style="rounded=0;whiteSpace=wrap;html=1;" parent="1" vertex="1">
          <mxGeometry x="322" y="400" width="90" height="40" as="geometry" />
        </mxCell>
        <mxCell id="nqcMyRLBaFdtUYppc4_4-10" value="Img 3" style="rounded=0;whiteSpace=wrap;html=1;" parent="1" vertex="1">
          <mxGeometry x="420" y="400" width="90" height="40" as="geometry" />
        </mxCell>
        <mxCell id="nqcMyRLBaFdtUYppc4_4-11" value="Edit" style="rounded=0;whiteSpace=wrap;html=1;fontSize=9;" parent="1" vertex="1">
          <mxGeometry x="445" y="445" width="20" height="10" as="geometry" />
        </mxCell>
        <mxCell id="nqcMyRLBaFdtUYppc4_4-12" value="Delete" style="rounded=0;whiteSpace=wrap;html=1;fontSize=9;" parent="1" vertex="1">
          <mxGeometry x="470" y="445" width="30" height="10" as="geometry" />
        </mxCell>
      </root>
    </mxGraphModel>
  </diagram>
  <diagram id="SdwC57GBYcZADCfCNdyM" name="Add Q">
    <mxGraphModel dx="956" dy="557" grid="1" gridSize="10" guides="1" tooltips="1" connect="1" arrows="1" fold="1" page="1" pageScale="1" pageWidth="850" pageHeight="1100" math="0" shadow="0">
      <root>
        <mxCell id="0" />
        <mxCell id="1" parent="0" />
        <mxCell id="_IkFVc2iGe0haU2J7Rpl-1" value="" style="rounded=0;whiteSpace=wrap;html=1;" vertex="1" parent="1">
          <mxGeometry x="40" y="160" width="640" height="400" as="geometry" />
        </mxCell>
        <mxCell id="h65f8vTl1SxURiupz9-G-1" value="" style="rounded=0;whiteSpace=wrap;html=1;" vertex="1" parent="1">
          <mxGeometry x="40" y="160" width="640" height="80" as="geometry" />
        </mxCell>
        <mxCell id="h65f8vTl1SxURiupz9-G-2" value="Back" style="rounded=0;whiteSpace=wrap;html=1;" vertex="1" parent="1">
          <mxGeometry x="60" y="190" width="40" height="20" as="geometry" />
        </mxCell>
        <mxCell id="h65f8vTl1SxURiupz9-G-3" value="" style="rounded=0;whiteSpace=wrap;html=1;" vertex="1" parent="1">
          <mxGeometry x="120" y="280" width="480" height="260" as="geometry" />
        </mxCell>
        <mxCell id="h65f8vTl1SxURiupz9-G-9" value="" style="rounded=0;whiteSpace=wrap;html=1;" vertex="1" parent="1">
          <mxGeometry x="165" y="310" width="390" height="60" as="geometry" />
        </mxCell>
        <mxCell id="h65f8vTl1SxURiupz9-G-13" value="" style="group" vertex="1" connectable="0" parent="1">
          <mxGeometry x="180" y="290" width="110" height="90" as="geometry" />
        </mxCell>
        <mxCell id="h65f8vTl1SxURiupz9-G-4" value="Module Selection&lt;br&gt;" style="rounded=0;whiteSpace=wrap;html=1;" vertex="1" parent="h65f8vTl1SxURiupz9-G-13">
          <mxGeometry width="100" height="22.5" as="geometry" />
        </mxCell>
        <mxCell id="h65f8vTl1SxURiupz9-G-5" value="" style="rounded=0;whiteSpace=wrap;html=1;" vertex="1" parent="h65f8vTl1SxURiupz9-G-13">
          <mxGeometry y="22.5" width="110" height="67.5" as="geometry" />
        </mxCell>
        <mxCell id="h65f8vTl1SxURiupz9-G-6" value="Module 1" style="text;html=1;strokeColor=none;fillColor=none;align=center;verticalAlign=middle;whiteSpace=wrap;rounded=0;fontSize=8;" vertex="1" parent="h65f8vTl1SxURiupz9-G-13">
          <mxGeometry x="15" y="33.75" width="35" height="11.25" as="geometry" />
        </mxCell>
        <mxCell id="h65f8vTl1SxURiupz9-G-7" value="Module 2" style="text;html=1;strokeColor=none;fillColor=none;align=center;verticalAlign=middle;whiteSpace=wrap;rounded=0;fontSize=8;" vertex="1" parent="h65f8vTl1SxURiupz9-G-13">
          <mxGeometry x="15" y="50.625" width="35" height="11.25" as="geometry" />
        </mxCell>
        <mxCell id="h65f8vTl1SxURiupz9-G-8" value="Module 3" style="text;html=1;strokeColor=none;fillColor=none;align=center;verticalAlign=middle;whiteSpace=wrap;rounded=0;fontSize=8;" vertex="1" parent="h65f8vTl1SxURiupz9-G-13">
          <mxGeometry x="15" y="68.625" width="35" height="11.25" as="geometry" />
        </mxCell>
        <mxCell id="h65f8vTl1SxURiupz9-G-14" value="Text Area" style="text;html=1;strokeColor=none;fillColor=none;align=center;verticalAlign=middle;whiteSpace=wrap;rounded=0;" vertex="1" parent="1">
          <mxGeometry x="335" y="325" width="60" height="30" as="geometry" />
        </mxCell>
        <mxCell id="h65f8vTl1SxURiupz9-G-15" value="Choose Image" style="rounded=0;whiteSpace=wrap;html=1;fontSize=10;" vertex="1" parent="1">
          <mxGeometry x="325" y="380" width="70" height="20" as="geometry" />
        </mxCell>
        <mxCell id="rWpWZaZvdDd5qpN03gkV-3" value="" style="group" vertex="1" connectable="0" parent="1">
          <mxGeometry x="170" y="405" width="75" height="75" as="geometry" />
        </mxCell>
        <mxCell id="h65f8vTl1SxURiupz9-G-16" value="Img 1" style="whiteSpace=wrap;html=1;aspect=fixed;" vertex="1" parent="rWpWZaZvdDd5qpN03gkV-3">
          <mxGeometry width="75" height="75" as="geometry" />
        </mxCell>
        <mxCell id="rWpWZaZvdDd5qpN03gkV-1" value="X" style="ellipse;whiteSpace=wrap;html=1;aspect=fixed;" vertex="1" parent="rWpWZaZvdDd5qpN03gkV-3">
          <mxGeometry x="55" y="5" width="15" height="15" as="geometry" />
        </mxCell>
        <mxCell id="rWpWZaZvdDd5qpN03gkV-4" value="" style="group" vertex="1" connectable="0" parent="1">
          <mxGeometry x="250" y="405" width="75" height="75" as="geometry" />
        </mxCell>
        <mxCell id="h65f8vTl1SxURiupz9-G-17" value="Img 2" style="whiteSpace=wrap;html=1;aspect=fixed;" vertex="1" parent="rWpWZaZvdDd5qpN03gkV-4">
          <mxGeometry width="75" height="75" as="geometry" />
        </mxCell>
        <mxCell id="rWpWZaZvdDd5qpN03gkV-2" value="X" style="ellipse;whiteSpace=wrap;html=1;aspect=fixed;" vertex="1" parent="rWpWZaZvdDd5qpN03gkV-4">
          <mxGeometry x="55" y="5" width="15" height="15" as="geometry" />
        </mxCell>
        <mxCell id="rWpWZaZvdDd5qpN03gkV-5" value="Post" style="rounded=0;whiteSpace=wrap;html=1;fontSize=10;" vertex="1" parent="1">
          <mxGeometry x="340" y="500" width="40" height="20" as="geometry" />
        </mxCell>
      </root>
    </mxGraphModel>
  </diagram>
  <diagram id="si5Vkpfec91aVeRmVEU1" name="Edit">
    <mxGraphModel dx="1247" dy="727" grid="1" gridSize="10" guides="1" tooltips="1" connect="1" arrows="1" fold="1" page="1" pageScale="1" pageWidth="850" pageHeight="1100" math="0" shadow="0">
      <root>
        <mxCell id="0" />
        <mxCell id="1" parent="0" />
        <mxCell id="c8FCVi-ypxmj_Y6zd-pd-1" value="" style="rounded=0;whiteSpace=wrap;html=1;" vertex="1" parent="1">
          <mxGeometry x="40" y="160" width="640" height="400" as="geometry" />
        </mxCell>
        <mxCell id="c8FCVi-ypxmj_Y6zd-pd-2" value="" style="rounded=0;whiteSpace=wrap;html=1;" vertex="1" parent="1">
          <mxGeometry x="40" y="160" width="640" height="80" as="geometry" />
        </mxCell>
        <mxCell id="c8FCVi-ypxmj_Y6zd-pd-3" value="Back" style="rounded=0;whiteSpace=wrap;html=1;" vertex="1" parent="1">
          <mxGeometry x="60" y="190" width="40" height="20" as="geometry" />
        </mxCell>
        <mxCell id="c8FCVi-ypxmj_Y6zd-pd-4" value="" style="rounded=0;whiteSpace=wrap;html=1;" vertex="1" parent="1">
          <mxGeometry x="120" y="280" width="480" height="260" as="geometry" />
        </mxCell>
        <mxCell id="c8FCVi-ypxmj_Y6zd-pd-5" value="" style="rounded=0;whiteSpace=wrap;html=1;" vertex="1" parent="1">
          <mxGeometry x="165" y="310" width="390" height="60" as="geometry" />
        </mxCell>
        <mxCell id="c8FCVi-ypxmj_Y6zd-pd-6" value="" style="group" vertex="1" connectable="0" parent="1">
          <mxGeometry x="410" y="290" width="110" height="90" as="geometry" />
        </mxCell>
        <mxCell id="c8FCVi-ypxmj_Y6zd-pd-7" value="Module Selection&lt;br&gt;" style="rounded=0;whiteSpace=wrap;html=1;" vertex="1" parent="c8FCVi-ypxmj_Y6zd-pd-6">
          <mxGeometry width="100" height="22.5" as="geometry" />
        </mxCell>
        <mxCell id="c8FCVi-ypxmj_Y6zd-pd-8" value="" style="rounded=0;whiteSpace=wrap;html=1;" vertex="1" parent="c8FCVi-ypxmj_Y6zd-pd-6">
          <mxGeometry y="22.5" width="110" height="67.5" as="geometry" />
        </mxCell>
        <mxCell id="c8FCVi-ypxmj_Y6zd-pd-9" value="Module 1" style="text;html=1;strokeColor=none;fillColor=none;align=center;verticalAlign=middle;whiteSpace=wrap;rounded=0;fontSize=8;" vertex="1" parent="c8FCVi-ypxmj_Y6zd-pd-6">
          <mxGeometry x="15" y="33.75" width="35" height="11.25" as="geometry" />
        </mxCell>
        <mxCell id="c8FCVi-ypxmj_Y6zd-pd-10" value="Module 2" style="text;html=1;strokeColor=none;fillColor=none;align=center;verticalAlign=middle;whiteSpace=wrap;rounded=0;fontSize=8;" vertex="1" parent="c8FCVi-ypxmj_Y6zd-pd-6">
          <mxGeometry x="15" y="50.625" width="35" height="11.25" as="geometry" />
        </mxCell>
        <mxCell id="c8FCVi-ypxmj_Y6zd-pd-11" value="Module 3" style="text;html=1;strokeColor=none;fillColor=none;align=center;verticalAlign=middle;whiteSpace=wrap;rounded=0;fontSize=8;" vertex="1" parent="c8FCVi-ypxmj_Y6zd-pd-6">
          <mxGeometry x="15" y="68.625" width="35" height="11.25" as="geometry" />
        </mxCell>
        <mxCell id="c8FCVi-ypxmj_Y6zd-pd-12" value="Text Area" style="text;html=1;strokeColor=none;fillColor=none;align=center;verticalAlign=middle;whiteSpace=wrap;rounded=0;" vertex="1" parent="1">
          <mxGeometry x="185" y="325" width="60" height="30" as="geometry" />
        </mxCell>
        <mxCell id="c8FCVi-ypxmj_Y6zd-pd-13" value="Choose Image" style="rounded=0;whiteSpace=wrap;html=1;fontSize=10;" vertex="1" parent="1">
          <mxGeometry x="325" y="380" width="70" height="20" as="geometry" />
        </mxCell>
        <mxCell id="c8FCVi-ypxmj_Y6zd-pd-14" value="" style="group" vertex="1" connectable="0" parent="1">
          <mxGeometry x="170" y="405" width="75" height="75" as="geometry" />
        </mxCell>
        <mxCell id="c8FCVi-ypxmj_Y6zd-pd-15" value="Img 1" style="whiteSpace=wrap;html=1;aspect=fixed;" vertex="1" parent="c8FCVi-ypxmj_Y6zd-pd-14">
          <mxGeometry width="75" height="75" as="geometry" />
        </mxCell>
        <mxCell id="c8FCVi-ypxmj_Y6zd-pd-16" value="X" style="ellipse;whiteSpace=wrap;html=1;aspect=fixed;" vertex="1" parent="c8FCVi-ypxmj_Y6zd-pd-14">
          <mxGeometry x="55" y="5" width="15" height="15" as="geometry" />
        </mxCell>
        <mxCell id="c8FCVi-ypxmj_Y6zd-pd-17" value="" style="group" vertex="1" connectable="0" parent="1">
          <mxGeometry x="250" y="405" width="75" height="75" as="geometry" />
        </mxCell>
        <mxCell id="c8FCVi-ypxmj_Y6zd-pd-18" value="Img 2" style="whiteSpace=wrap;html=1;aspect=fixed;" vertex="1" parent="c8FCVi-ypxmj_Y6zd-pd-17">
          <mxGeometry width="75" height="75" as="geometry" />
        </mxCell>
        <mxCell id="c8FCVi-ypxmj_Y6zd-pd-19" value="X" style="ellipse;whiteSpace=wrap;html=1;aspect=fixed;" vertex="1" parent="c8FCVi-ypxmj_Y6zd-pd-17">
          <mxGeometry x="55" y="5" width="15" height="15" as="geometry" />
        </mxCell>
        <mxCell id="c8FCVi-ypxmj_Y6zd-pd-20" value="Update" style="rounded=0;whiteSpace=wrap;html=1;fontSize=10;" vertex="1" parent="1">
          <mxGeometry x="340" y="500" width="40" height="20" as="geometry" />
        </mxCell>
      </root>
    </mxGraphModel>
  </diagram>
  <diagram id="_uScfX-iYK1FQ2PDyLzj" name="Profile">
    <mxGraphModel dx="1103" dy="643" grid="1" gridSize="10" guides="1" tooltips="1" connect="1" arrows="1" fold="1" page="1" pageScale="1" pageWidth="850" pageHeight="1100" math="0" shadow="0">
      <root>
        <mxCell id="0" />
        <mxCell id="1" parent="0" />
        <mxCell id="vHw2KbhlxpaPhJ_2TM6p-1" value="" style="rounded=0;whiteSpace=wrap;html=1;" vertex="1" parent="1">
          <mxGeometry x="40" y="160" width="640" height="400" as="geometry" />
        </mxCell>
        <mxCell id="vHw2KbhlxpaPhJ_2TM6p-2" value="" style="rounded=0;whiteSpace=wrap;html=1;" vertex="1" parent="1">
          <mxGeometry x="40" y="160" width="640" height="80" as="geometry" />
        </mxCell>
        <mxCell id="vHw2KbhlxpaPhJ_2TM6p-3" value="Back" style="rounded=0;whiteSpace=wrap;html=1;" vertex="1" parent="1">
          <mxGeometry x="60" y="190" width="40" height="20" as="geometry" />
        </mxCell>
        <mxCell id="vHw2KbhlxpaPhJ_2TM6p-4" value="" style="rounded=0;whiteSpace=wrap;html=1;" vertex="1" parent="1">
          <mxGeometry x="120" y="280" width="480" height="260" as="geometry" />
        </mxCell>
        <mxCell id="vHw2KbhlxpaPhJ_2TM6p-22" value="&lt;b&gt;&lt;font style=&quot;font-size: 15px;&quot;&gt;Your Profile&lt;/font&gt;&lt;/b&gt;" style="text;html=1;strokeColor=none;fillColor=none;align=center;verticalAlign=middle;whiteSpace=wrap;rounded=0;" vertex="1" parent="1">
          <mxGeometry x="315" y="281" width="90" height="30" as="geometry" />
        </mxCell>
        <mxCell id="vHw2KbhlxpaPhJ_2TM6p-23" value="&lt;b&gt;&lt;font style=&quot;font-size: 15px;&quot;&gt;Your Questions&lt;/font&gt;&lt;/b&gt;" style="text;html=1;strokeColor=none;fillColor=none;align=center;verticalAlign=middle;whiteSpace=wrap;rounded=0;" vertex="1" parent="1">
          <mxGeometry x="302.5" y="570" width="115" height="30" as="geometry" />
        </mxCell>
        <mxCell id="vHw2KbhlxpaPhJ_2TM6p-24" value="Username" style="rounded=0;whiteSpace=wrap;html=1;align=left;" vertex="1" parent="1">
          <mxGeometry x="140" y="311" width="440" height="19" as="geometry" />
        </mxCell>
        <mxCell id="vHw2KbhlxpaPhJ_2TM6p-30" value="Full Name" style="rounded=0;whiteSpace=wrap;html=1;align=left;" vertex="1" parent="1">
          <mxGeometry x="140" y="341" width="440" height="19" as="geometry" />
        </mxCell>
        <mxCell id="vHw2KbhlxpaPhJ_2TM6p-31" value="Phone Number" style="rounded=0;whiteSpace=wrap;html=1;align=left;" vertex="1" parent="1">
          <mxGeometry x="140" y="370" width="440" height="19" as="geometry" />
        </mxCell>
        <mxCell id="vHw2KbhlxpaPhJ_2TM6p-32" value="Email" style="rounded=0;whiteSpace=wrap;html=1;align=left;" vertex="1" parent="1">
          <mxGeometry x="140" y="400" width="440" height="19" as="geometry" />
        </mxCell>
        <mxCell id="vHw2KbhlxpaPhJ_2TM6p-33" value="Gender" style="rounded=0;whiteSpace=wrap;html=1;align=left;" vertex="1" parent="1">
          <mxGeometry x="140" y="430.5" width="440" height="19" as="geometry" />
        </mxCell>
        <mxCell id="vHw2KbhlxpaPhJ_2TM6p-34" value="New Password" style="rounded=0;whiteSpace=wrap;html=1;align=left;" vertex="1" parent="1">
          <mxGeometry x="140" y="460" width="440" height="19" as="geometry" />
        </mxCell>
        <mxCell id="vHw2KbhlxpaPhJ_2TM6p-35" value="Update Profile" style="rounded=0;whiteSpace=wrap;html=1;" vertex="1" parent="1">
          <mxGeometry x="320" y="486" width="80" height="19" as="geometry" />
        </mxCell>
        <mxCell id="vHw2KbhlxpaPhJ_2TM6p-36" value="Delete Account" style="rounded=0;whiteSpace=wrap;html=1;" vertex="1" parent="1">
          <mxGeometry x="313.75" y="514" width="92.5" height="19" as="geometry" />
        </mxCell>
        <mxCell id="CPKNjx_1CItnXjm620D_-10" value="" style="group" vertex="1" connectable="0" parent="1">
          <mxGeometry x="200" y="600" width="320" height="250" as="geometry" />
        </mxCell>
        <mxCell id="CPKNjx_1CItnXjm620D_-1" value="" style="rounded=0;whiteSpace=wrap;html=1;" vertex="1" parent="CPKNjx_1CItnXjm620D_-10">
          <mxGeometry width="320" height="250" as="geometry" />
        </mxCell>
        <mxCell id="CPKNjx_1CItnXjm620D_-2" value="Module Name" style="text;html=1;strokeColor=none;fillColor=none;align=center;verticalAlign=middle;whiteSpace=wrap;rounded=0;fontStyle=1" vertex="1" parent="CPKNjx_1CItnXjm620D_-10">
          <mxGeometry x="10" y="40" width="80" height="30" as="geometry" />
        </mxCell>
        <mxCell id="CPKNjx_1CItnXjm620D_-3" value="&lt;b&gt;Name&lt;/b&gt;" style="text;html=1;strokeColor=none;fillColor=none;align=center;verticalAlign=middle;whiteSpace=wrap;rounded=0;" vertex="1" parent="CPKNjx_1CItnXjm620D_-10">
          <mxGeometry x="140" y="14" width="40" height="16" as="geometry" />
        </mxCell>
        <mxCell id="CPKNjx_1CItnXjm620D_-4" value="Img 1" style="rounded=0;whiteSpace=wrap;html=1;" vertex="1" parent="CPKNjx_1CItnXjm620D_-10">
          <mxGeometry x="25" y="100" width="90" height="40" as="geometry" />
        </mxCell>
        <mxCell id="CPKNjx_1CItnXjm620D_-5" value="Question" style="text;html=1;strokeColor=none;fillColor=none;align=center;verticalAlign=middle;whiteSpace=wrap;rounded=0;" vertex="1" parent="CPKNjx_1CItnXjm620D_-10">
          <mxGeometry x="20" y="70" width="60" height="20" as="geometry" />
        </mxCell>
        <mxCell id="CPKNjx_1CItnXjm620D_-6" value="Img 2" style="rounded=0;whiteSpace=wrap;html=1;" vertex="1" parent="CPKNjx_1CItnXjm620D_-10">
          <mxGeometry x="122" y="100" width="90" height="40" as="geometry" />
        </mxCell>
        <mxCell id="CPKNjx_1CItnXjm620D_-7" value="Img 3" style="rounded=0;whiteSpace=wrap;html=1;" vertex="1" parent="CPKNjx_1CItnXjm620D_-10">
          <mxGeometry x="220" y="100" width="90" height="40" as="geometry" />
        </mxCell>
        <mxCell id="CPKNjx_1CItnXjm620D_-8" value="Edit" style="rounded=0;whiteSpace=wrap;html=1;fontSize=9;" vertex="1" parent="CPKNjx_1CItnXjm620D_-10">
          <mxGeometry x="245" y="145" width="20" height="10" as="geometry" />
        </mxCell>
        <mxCell id="CPKNjx_1CItnXjm620D_-9" value="Delete" style="rounded=0;whiteSpace=wrap;html=1;fontSize=9;" vertex="1" parent="CPKNjx_1CItnXjm620D_-10">
          <mxGeometry x="270" y="145" width="30" height="10" as="geometry" />
        </mxCell>
        <mxCell id="CPKNjx_1CItnXjm620D_-12" value="" style="html=1;verticalLabelPosition=bottom;labelBackgroundColor=#ffffff;verticalAlign=top;shadow=0;dashed=0;strokeWidth=2;shape=mxgraph.ios7.misc.scroll_(vertical);fillColor=#a0a0a0;" vertex="1" parent="1">
          <mxGeometry x="620" y="280" width="6" height="80" as="geometry" />
        </mxCell>
      </root>
    </mxGraphModel>
  </diagram>
  <diagram id="UKvt1TlfqBZ0E94XQWwr" name="Contact">
    <mxGraphModel dx="844" dy="492" grid="1" gridSize="10" guides="1" tooltips="1" connect="1" arrows="1" fold="1" page="1" pageScale="1" pageWidth="850" pageHeight="1100" math="0" shadow="0">
      <root>
        <mxCell id="0" />
        <mxCell id="1" parent="0" />
        <mxCell id="0QsjFI5uG_ES9LqjhD22-1" value="" style="rounded=0;whiteSpace=wrap;html=1;" vertex="1" parent="1">
          <mxGeometry x="40" y="160" width="640" height="400" as="geometry" />
        </mxCell>
        <mxCell id="0QsjFI5uG_ES9LqjhD22-2" value="" style="rounded=0;whiteSpace=wrap;html=1;" vertex="1" parent="1">
          <mxGeometry x="40" y="160" width="640" height="80" as="geometry" />
        </mxCell>
        <mxCell id="0QsjFI5uG_ES9LqjhD22-3" value="Back" style="rounded=0;whiteSpace=wrap;html=1;" vertex="1" parent="1">
          <mxGeometry x="60" y="190" width="40" height="20" as="geometry" />
        </mxCell>
        <mxCell id="0QsjFI5uG_ES9LqjhD22-4" value="" style="rounded=0;whiteSpace=wrap;html=1;" vertex="1" parent="1">
          <mxGeometry x="120" y="280" width="480" height="260" as="geometry" />
        </mxCell>
        <mxCell id="0QsjFI5uG_ES9LqjhD22-5" value="&lt;b&gt;&lt;font style=&quot;font-size: 15px;&quot;&gt;Contact Us&lt;/font&gt;&lt;/b&gt;" style="text;html=1;strokeColor=none;fillColor=none;align=center;verticalAlign=middle;whiteSpace=wrap;rounded=0;" vertex="1" parent="1">
          <mxGeometry x="315" y="281" width="90" height="30" as="geometry" />
        </mxCell>
        <mxCell id="0QsjFI5uG_ES9LqjhD22-7" value="Full Name" style="rounded=0;whiteSpace=wrap;html=1;align=left;" vertex="1" parent="1">
          <mxGeometry x="140" y="341" width="440" height="19" as="geometry" />
        </mxCell>
        <mxCell id="0QsjFI5uG_ES9LqjhD22-9" value="Email" style="rounded=0;whiteSpace=wrap;html=1;align=left;" vertex="1" parent="1">
          <mxGeometry x="140" y="380" width="440" height="19" as="geometry" />
        </mxCell>
        <mxCell id="0QsjFI5uG_ES9LqjhD22-15" value="Text Area" style="rounded=0;whiteSpace=wrap;html=1;align=left;" vertex="1" parent="1">
          <mxGeometry x="140" y="420" width="440" height="60" as="geometry" />
        </mxCell>
        <mxCell id="0QsjFI5uG_ES9LqjhD22-31" value="Send Message" style="rounded=0;whiteSpace=wrap;html=1;" vertex="1" parent="1">
          <mxGeometry x="315" y="500" width="90" height="20" as="geometry" />
        </mxCell>
      </root>
    </mxGraphModel>
  </diagram>
  <diagram id="IK8RGVU5b3Im7t8knnNi" name="Login">
    <mxGraphModel dx="775" dy="452" grid="1" gridSize="10" guides="1" tooltips="1" connect="1" arrows="1" fold="1" page="1" pageScale="1" pageWidth="850" pageHeight="1100" math="0" shadow="0">
      <root>
        <mxCell id="0" />
        <mxCell id="1" parent="0" />
        <mxCell id="Ef7uWIqq2P-tunWljTE6-1" value="" style="rounded=0;whiteSpace=wrap;html=1;" vertex="1" parent="1">
          <mxGeometry x="40" y="160" width="640" height="400" as="geometry" />
        </mxCell>
        <mxCell id="Ef7uWIqq2P-tunWljTE6-4" value="" style="rounded=0;whiteSpace=wrap;html=1;" vertex="1" parent="1">
          <mxGeometry x="220" y="229.99999999999994" width="280" height="260" as="geometry" />
        </mxCell>
        <mxCell id="Ef7uWIqq2P-tunWljTE6-5" value="&lt;b&gt;&lt;font style=&quot;font-size: 15px;&quot;&gt;Login&lt;/font&gt;&lt;/b&gt;" style="text;html=1;strokeColor=none;fillColor=none;align=center;verticalAlign=middle;whiteSpace=wrap;rounded=0;" vertex="1" parent="1">
          <mxGeometry x="315" y="250" width="90" height="30" as="geometry" />
        </mxCell>
        <mxCell id="Ef7uWIqq2P-tunWljTE6-6" value="Username" style="rounded=0;whiteSpace=wrap;html=1;align=left;" vertex="1" parent="1">
          <mxGeometry x="240" y="340" width="230" height="19" as="geometry" />
        </mxCell>
        <mxCell id="Ef7uWIqq2P-tunWljTE6-7" value="Password" style="rounded=0;whiteSpace=wrap;html=1;align=left;" vertex="1" parent="1">
          <mxGeometry x="240" y="380" width="230" height="19" as="geometry" />
        </mxCell>
        <mxCell id="Ef7uWIqq2P-tunWljTE6-9" value="Login" style="rounded=0;whiteSpace=wrap;html=1;" vertex="1" parent="1">
          <mxGeometry x="315" y="420" width="90" height="20" as="geometry" />
        </mxCell>
        <mxCell id="Ef7uWIqq2P-tunWljTE6-10" value="Don&#39;t have an account? Sign up" style="text;html=1;strokeColor=none;fillColor=none;align=center;verticalAlign=middle;whiteSpace=wrap;rounded=0;fontSize=10;" vertex="1" parent="1">
          <mxGeometry x="270" y="460" width="180" height="10" as="geometry" />
        </mxCell>
      </root>
    </mxGraphModel>
  </diagram>
  <diagram id="fvJAm6s7iofbfA8JdA4J" name="Signup">
    <mxGraphModel dx="1418" dy="820" grid="1" gridSize="10" guides="1" tooltips="1" connect="1" arrows="1" fold="1" page="1" pageScale="1" pageWidth="850" pageHeight="1100" math="0" shadow="0">
      <root>
        <mxCell id="0" />
        <mxCell id="1" parent="0" />
        <mxCell id="pbjNEA75LgXPFqabx9Ht-1" value="" style="rounded=0;whiteSpace=wrap;html=1;" parent="1" vertex="1">
          <mxGeometry x="40" y="160" width="640" height="400" as="geometry" />
        </mxCell>
        <mxCell id="pbjNEA75LgXPFqabx9Ht-2" value="" style="rounded=0;whiteSpace=wrap;html=1;" parent="1" vertex="1">
          <mxGeometry x="220" y="184.5" width="280" height="355.5" as="geometry" />
        </mxCell>
        <mxCell id="pbjNEA75LgXPFqabx9Ht-3" value="&lt;b&gt;&lt;font style=&quot;font-size: 15px;&quot;&gt;Signup&lt;/font&gt;&lt;/b&gt;" style="text;html=1;strokeColor=none;fillColor=none;align=center;verticalAlign=middle;whiteSpace=wrap;rounded=0;" parent="1" vertex="1">
          <mxGeometry x="315" y="190" width="90" height="30" as="geometry" />
        </mxCell>
        <mxCell id="pbjNEA75LgXPFqabx9Ht-5" value="Password" style="rounded=0;whiteSpace=wrap;html=1;align=left;" parent="1" vertex="1">
          <mxGeometry x="240" y="410" width="230" height="19" as="geometry" />
        </mxCell>
        <mxCell id="pbjNEA75LgXPFqabx9Ht-6" value="Create an account" style="rounded=0;whiteSpace=wrap;html=1;" parent="1" vertex="1">
          <mxGeometry x="305" y="450" width="110" height="20" as="geometry" />
        </mxCell>
        <mxCell id="pbjNEA75LgXPFqabx9Ht-7" value="Already have an account? Log in" style="text;html=1;strokeColor=none;fillColor=none;align=center;verticalAlign=middle;whiteSpace=wrap;rounded=0;fontSize=10;" parent="1" vertex="1">
          <mxGeometry x="270" y="490" width="180" height="10" as="geometry" />
        </mxCell>
        <mxCell id="2wGWIuPiw17QQYoDS8DI-2" value="Full Name" style="rounded=0;whiteSpace=wrap;html=1;align=left;" parent="1" vertex="1">
          <mxGeometry x="240" y="240" width="230" height="19" as="geometry" />
        </mxCell>
        <mxCell id="2wGWIuPiw17QQYoDS8DI-3" value="Phone Number" style="rounded=0;whiteSpace=wrap;html=1;align=left;" parent="1" vertex="1">
          <mxGeometry x="240" y="270" width="230" height="19" as="geometry" />
        </mxCell>
        <mxCell id="2wGWIuPiw17QQYoDS8DI-4" value="Email" style="rounded=0;whiteSpace=wrap;html=1;align=left;" parent="1" vertex="1">
          <mxGeometry x="240" y="300" width="230" height="19" as="geometry" />
        </mxCell>
        <mxCell id="2wGWIuPiw17QQYoDS8DI-6" value="Username" style="rounded=0;whiteSpace=wrap;html=1;align=left;" parent="1" vertex="1">
          <mxGeometry x="240" y="380" width="230" height="19" as="geometry" />
        </mxCell>
        <mxCell id="2wGWIuPiw17QQYoDS8DI-7" value="Gender" style="text;html=1;strokeColor=none;fillColor=none;align=center;verticalAlign=middle;whiteSpace=wrap;rounded=0;" parent="1" vertex="1">
          <mxGeometry x="247" y="321" width="25" height="21" as="geometry" />
        </mxCell>
        <mxCell id="2wGWIuPiw17QQYoDS8DI-10" value="" style="group" parent="1" vertex="1" connectable="0">
          <mxGeometry x="260" y="350" width="47" height="10" as="geometry" />
        </mxCell>
        <mxCell id="2wGWIuPiw17QQYoDS8DI-8" value="" style="html=1;shadow=0;dashed=0;shape=mxgraph.bootstrap.radioButton2;labelPosition=right;verticalLabelPosition=middle;align=left;verticalAlign=middle;gradientColor=#DEDEDE;fillColor=#EDEDED;checked=0;spacing=5;checkedFill=#0085FC;checkedStroke=#ffffff;sketch=0;" parent="2wGWIuPiw17QQYoDS8DI-10" vertex="1">
          <mxGeometry width="10" height="10" as="geometry" />
        </mxCell>
        <mxCell id="2wGWIuPiw17QQYoDS8DI-9" value="Male" style="text;html=1;strokeColor=none;fillColor=none;align=center;verticalAlign=middle;whiteSpace=wrap;rounded=0;" parent="2wGWIuPiw17QQYoDS8DI-10" vertex="1">
          <mxGeometry x="20" width="27" height="10" as="geometry" />
        </mxCell>
        <mxCell id="2wGWIuPiw17QQYoDS8DI-17" value="" style="group" parent="1" vertex="1" connectable="0">
          <mxGeometry x="325" y="350" width="60" height="10" as="geometry" />
        </mxCell>
        <mxCell id="2wGWIuPiw17QQYoDS8DI-12" value="" style="html=1;shadow=0;dashed=0;shape=mxgraph.bootstrap.radioButton2;labelPosition=right;verticalLabelPosition=middle;align=left;verticalAlign=middle;gradientColor=#DEDEDE;fillColor=#EDEDED;checked=0;spacing=5;checkedFill=#0085FC;checkedStroke=#ffffff;sketch=0;" parent="2wGWIuPiw17QQYoDS8DI-17" vertex="1">
          <mxGeometry width="10" height="10" as="geometry" />
        </mxCell>
        <mxCell id="2wGWIuPiw17QQYoDS8DI-13" value="Female" style="text;html=1;strokeColor=none;fillColor=none;align=center;verticalAlign=middle;whiteSpace=wrap;rounded=0;" parent="2wGWIuPiw17QQYoDS8DI-17" vertex="1">
          <mxGeometry x="20" width="40" height="10" as="geometry" />
        </mxCell>
        <mxCell id="2wGWIuPiw17QQYoDS8DI-18" value="" style="group" parent="1" vertex="1" connectable="0">
          <mxGeometry x="405" y="350" width="50" height="10" as="geometry" />
        </mxCell>
        <mxCell id="2wGWIuPiw17QQYoDS8DI-15" value="" style="html=1;shadow=0;dashed=0;shape=mxgraph.bootstrap.radioButton2;labelPosition=right;verticalLabelPosition=middle;align=left;verticalAlign=middle;gradientColor=#DEDEDE;fillColor=#EDEDED;checked=0;spacing=5;checkedFill=#0085FC;checkedStroke=#ffffff;sketch=0;" parent="2wGWIuPiw17QQYoDS8DI-18" vertex="1">
          <mxGeometry width="10" height="10" as="geometry" />
        </mxCell>
        <mxCell id="2wGWIuPiw17QQYoDS8DI-16" value="Other" style="text;html=1;strokeColor=none;fillColor=none;align=center;verticalAlign=middle;whiteSpace=wrap;rounded=0;" parent="2wGWIuPiw17QQYoDS8DI-18" vertex="1">
          <mxGeometry x="20" width="30" height="10" as="geometry" />
        </mxCell>
      </root>
    </mxGraphModel>
  </diagram>
</mxfile>
